<?xml version="1.0" encoding="UTF-8"?>
<svg id="Layer_1" data-name="Layer 1" xmlns="http://www.w3.org/2000/svg" xmlns:xlink="http://www.w3.org/1999/xlink" viewBox="0 0 1024 1024">
  <defs>
    <style>
      .cls-1 {
        fill: url(#linear-gradient-2);
      }

      .cls-2 {
        fill: #fff;
      }

      .cls-3 {
        fill: url(#linear-gradient-4);
      }

      .cls-4 {
        fill: url(#linear-gradient-3);
      }

      .cls-5 {
        fill: url(#linear-gradient);
      }
    </style>
    <linearGradient id="linear-gradient" x1="699.62" y1="313.22" x2="390.71" y2="518.18" gradientTransform="translate(0 1026) scale(1 -1)" gradientUnits="userSpaceOnUse">
      <stop offset="0" stop-color="#5341cd"/>
      <stop offset="1" stop-color="#6c5ce7"/>
    </linearGradient>
    <linearGradient id="linear-gradient-2" x1="348.36" y1="743.8" x2="506.29" y2="743.8" xlink:href="#linear-gradient"/>
    <linearGradient id="linear-gradient-3" x1="410.47" y1="685.18" x2="721.83" y2="685.18" gradientTransform="translate(0 1026) scale(1 -1)" gradientUnits="userSpaceOnUse">
      <stop offset="0" stop-color="#811dcf"/>
      <stop offset="1" stop-color="#b37ae1"/>
    </linearGradient>
    <linearGradient id="linear-gradient-4" x1="843.23" y1="826.66" x2="183.28" y2="566.05" xlink:href="#linear-gradient-3"/>
  </defs>
  <rect width="1024" height="1024"/>
  <g>
    <path class="cls-5" d="M310.68,510.31s180.04,179.35,381.81,32.22c-23.16,34.2-50.72,71.16-83.37,109.29-33.56,39.18-66.74,72.9-97.73,101.58-35.83-33.28-74.79-73.55-113.84-121.55-34.67-42.61-63.31-83.8-86.88-121.55h.01Z"/>
    <circle class="cls-1" cx="427.33" cy="282.2" r="78.97"/>
    <path class="cls-4" d="M556.7,392.75s-67.2-47.04-12.77-122.31c8.73-9.41,39.65-36.96,86.02-15.46,10.76,4.7,48.39,35.62,41,79.97-1.34,14.78-16.8,95.43-125,99.46-26.22.67-77.29,3.36-129.03-43.68l139.79,2.01h-.01Z"/>
    <path class="cls-3" d="M397.63,103.76s-121.46,114.41-49.26,237.08c13.05,21.26,90.31,144.39,231.55,110.59,25.35-4.82,89.16-28.39,112.6-100.2,10.56-32.35,7.13-74.29-3.34-106.06-18.34-55.68-64.29-100.36-120.7-116.77-31.34-9.12-64.97-10.42-96.88-3.53-40.11,8.67-77.31,30.27-104.74,60.81,22.06-48.34,68.78-83.71,120.56-95.6,51.78-11.89,107.64-1.2,153.49,25.62,70.85,41.44,116.63,115.55,123.38,196.97,3.86,46.63-2.92,94.17-23.79,136.35-23.91,48.35-63.44,86.22-113.25,107.13-40.86,17.16-86.85,21.28-130.77,18.99-15.79-1.75-153.29-16.38-214.71-146.27-10.09-25.88-33.68-78.44-16.21-153.94,12.25-52.93,43.72-99.53,84.67-135.24,18.79-16.38,36.86-30,47.41-35.96v.02Z"/>
  </g>
  <g>
    <path class="cls-2" d="M136.27,944c-9.87,0-19.16-1.86-27.88-5.6-8.73-3.73-16.4-8.93-22.98-15.59-6.6-6.66-11.77-14.4-15.5-23.19-3.74-8.8-5.6-18.26-5.6-28.39s1.9-19.55,5.7-28.29c3.8-8.72,9.03-16.4,15.69-22.98,6.66-6.6,14.46-11.7,23.39-15.3,8.93-3.6,18.59-5.4,28.99-5.4,11.6,0,22.22,2.13,31.89,6.4,9.66,4.27,17.75,10.33,24.29,18.2l-18.59,18.59c-4.27-5.86-9.66-10.33-16.2-13.4-6.53-3.06-13.73-4.6-21.59-4.6-8.93,0-16.83,1.96-23.69,5.9-6.86,3.94-12.23,9.43-16.09,16.49s-5.8,15.2-5.8,24.39,1.92,17.73,5.8,24.78c3.86,7.07,9.09,12.56,15.69,16.49,6.6,3.94,14.03,5.9,22.29,5.9,8.93,0,16.52-1.6,22.79-4.8,6.27-3.2,11.07-7.96,14.4-14.3,3.33-6.33,5-14.09,5-23.29l17.79,12.4-61.57-.6v-24h71.76v4c0,16.79-3,30.85-8.99,42.18-6,11.33-14.26,19.83-24.78,25.49-10.54,5.66-22.59,8.5-36.18,8.5l-.02.02Z"/>
    <path class="cls-2" d="M269.41,944c-9.73,0-18.49-2.23-26.29-6.7-7.8-4.47-13.97-10.52-18.49-18.2-4.53-7.66-6.8-16.3-6.8-25.89s2.27-17.96,6.8-25.49c4.53-7.53,10.7-13.52,18.49-17.99,7.8-4.47,16.56-6.7,26.29-6.7s18.69,2.2,26.49,6.6c7.8,4.4,13.99,10.4,18.59,17.99s6.9,16.12,6.9,25.59-2.27,18.06-6.8,25.78c-4.53,7.74-10.73,13.83-18.59,18.3-7.87,4.47-16.73,6.7-26.59,6.7h0ZM269.41,919.41c4.93,0,9.29-1.13,13.09-3.39,3.8-2.27,6.72-5.33,8.8-9.19,2.06-3.86,3.1-8.33,3.1-13.4s-1.1-9.52-3.29-13.4c-2.2-3.86-5.13-6.9-8.8-9.09-3.66-2.2-7.97-3.29-12.89-3.29s-9.07,1.1-12.79,3.29c-3.74,2.2-6.64,5.23-8.7,9.09-2.07,3.86-3.1,8.33-3.1,13.4s1.04,9.54,3.1,13.4,4.96,6.93,8.7,9.19c3.73,2.27,7.99,3.39,12.79,3.39Z"/>
    <path class="cls-2" d="M383.16,944c-9.73,0-18.49-2.23-26.29-6.7-7.8-4.47-13.97-10.52-18.49-18.2-4.53-7.66-6.8-16.3-6.8-25.89s2.27-17.96,6.8-25.49,10.7-13.52,18.49-17.99c7.8-4.47,16.56-6.7,26.29-6.7s18.69,2.2,26.49,6.6c7.8,4.4,13.99,10.4,18.59,17.99s6.9,16.12,6.9,25.59-2.27,18.06-6.8,25.78c-4.53,7.74-10.73,13.83-18.59,18.3-7.87,4.47-16.73,6.7-26.59,6.7h0ZM383.16,919.41c4.93,0,9.29-1.13,13.09-3.39,3.8-2.27,6.72-5.33,8.8-9.19,2.06-3.86,3.1-8.33,3.1-13.4s-1.1-9.52-3.29-13.4c-2.2-3.86-5.13-6.9-8.8-9.09-3.66-2.2-7.97-3.29-12.89-3.29s-9.07,1.1-12.79,3.29c-3.74,2.2-6.64,5.23-8.7,9.09-2.07,3.86-3.1,8.33-3.1,13.4s1.04,9.54,3.1,13.4,4.96,6.93,8.7,9.19c3.73,2.27,7.99,3.39,12.79,3.39h0Z"/>
    <path class="cls-2" d="M492.32,943.8c-8.93,0-16.89-2.2-23.88-6.6-6.99-4.4-12.56-10.4-16.69-17.99-4.13-7.6-6.19-16.12-6.19-25.59s2.06-18.2,6.19-25.78c4.13-7.6,9.7-13.6,16.69-17.99s14.96-6.6,23.88-6.6c6.93,0,13.19,1.43,18.79,4.29s10.09,6.76,13.5,11.7c3.39,4.93,5.23,10.54,5.5,16.79v34.38c-.27,6.39-2.07,12.13-5.4,17.2-3.33,5.07-7.8,9.03-13.4,11.89-5.6,2.86-11.93,4.29-18.99,4.29h0ZM496.9,919.61c4.8,0,9.06-1.13,12.79-3.39,3.73-2.27,6.62-5.33,8.7-9.19,2.06-3.86,3.1-8.33,3.1-13.4s-1.04-9.72-3.1-13.6c-2.07-3.86-4.93-6.93-8.6-9.19-3.66-2.27-7.9-3.39-12.69-3.39s-9.23,1.1-12.89,3.29c-3.66,2.2-6.53,5.27-8.6,9.19-2.07,3.94-3.1,8.43-3.1,13.5s1.04,9.77,3.1,13.69c2.06,3.94,4.96,6.99,8.7,9.19,3.73,2.2,7.93,3.29,12.6,3.29h0ZM546.29,941.8h-26.39v-25.99l4.39-23.59-4.6-23.39v-71.57h26.59v144.54h.01Z"/>
    <path class="cls-2" d="M571.88,941.8v-140.54h18.99l8.19,27.39v113.15h-27.19.01ZM669.03,941.8l-83.36-107.75,5.19-32.78,83.56,107.75-5.4,32.79h.01ZM669.03,941.8l-7.8-26.39v-114.15h27.19v140.54h-19.39Z"/>
    <path class="cls-2" d="M727.6,829.64c-4.27,0-7.8-1.43-10.6-4.29s-4.19-6.43-4.19-10.7,1.39-7.66,4.19-10.6,6.33-4.4,10.6-4.4,7.96,1.47,10.7,4.4c2.73,2.94,4.1,6.46,4.1,10.6s-1.37,7.83-4.1,10.7c-2.74,2.86-6.29,4.29-10.7,4.29ZM714.21,941.8v-96.56h26.59v96.56h-26.59Z"/>
    <path class="cls-2" d="M795.37,941.8l-42.57-96.56h28.78l30.58,79.56h-14.19l30.58-79.56h27.99l-42.38,96.56h-18.8Z"/>
    <path class="cls-2" d="M905.92,943.8c-8.8,0-16.69-2.2-23.69-6.6-6.99-4.4-12.5-10.4-16.49-17.99-4-7.6-6-16.12-6-25.59s2-18.2,6-25.78c4-7.59,9.5-13.6,16.49-17.99s14.95-6.6,23.88-6.6c6.8,0,12.93,1.39,18.39,4.19,5.47,2.8,9.86,6.66,13.2,11.6,3.33,4.93,5.13,10.6,5.4,16.99v34.99c-.27,6.27-2.04,11.89-5.29,16.89-3.27,5-7.66,8.89-13.2,11.7-5.53,2.8-11.77,4.19-18.69,4.19h-.01ZM910.92,919.61c7.33,0,13.26-2.47,17.79-7.4s6.8-11.13,6.8-18.59c0-5.06-1.07-9.6-3.2-13.6-2.13-4-5-7.09-8.6-9.3-3.6-2.2-7.87-3.29-12.79-3.29s-9.03,1.13-12.69,3.39c-3.66,2.27-6.53,5.33-8.6,9.19-2.07,3.86-3.1,8.33-3.1,13.4s1.04,9.73,3.1,13.6,4.96,6.93,8.7,9.19c3.73,2.27,7.93,3.39,12.6,3.39v.02ZM933.91,941.8v-25.99l4.4-23.59-4.4-23.39v-23.59h26.39v96.56h-26.39Z"/>
  </g>
</svg>