<?xml version="1.0" encoding="UTF-8"?>
<svg id="Layer_1" data-name="Layer 1" xmlns="http://www.w3.org/2000/svg" xmlns:xlink="http://www.w3.org/1999/xlink" viewBox="0 0 726.28 696.08">
  <defs>
    <style>
      .cls-1 {
        fill: url(#linear-gradient-2);
      }

      .cls-2 {
        fill: url(#linear-gradient-4);
      }

      .cls-3 {
        fill: url(#linear-gradient-3);
      }

      .cls-4 {
        fill: url(#linear-gradient);
      }
    </style>
    <linearGradient id="linear-gradient" x1="514.98" y1="508.66" x2="264.58" y2="342.53" gradientUnits="userSpaceOnUse">
      <stop offset="0" stop-color="#5341cd"/>
      <stop offset="1" stop-color="#6c5ce7"/>
    </linearGradient>
    <linearGradient id="linear-gradient-2" x1="230.25" y1="159.64" x2="358.27" y2="159.64" xlink:href="#linear-gradient"/>
    <linearGradient id="linear-gradient-3" x1="280.6" y1="207.17" x2="532.98" y2="207.17" gradientUnits="userSpaceOnUse">
      <stop offset="0" stop-color="#811dcf"/>
      <stop offset="1" stop-color="#b37ae1"/>
    </linearGradient>
    <linearGradient id="linear-gradient-4" x1="631.39" y1="92.48" x2="96.44" y2="303.73" xlink:href="#linear-gradient-3"/>
  </defs>
  <g>
    <path class="cls-4" d="M199.71,344.54s145.94,145.38,309.49,26.12c-18.77,27.72-41.11,57.68-67.58,88.59-27.2,31.76-54.1,59.09-79.22,82.34-29.04-26.98-60.62-59.62-92.28-98.53-28.1-34.54-51.32-67.93-70.42-98.53Z"/>
    <circle class="cls-1" cx="294.26" cy="159.64" r="64.01"/>
    <path class="cls-3" d="M399.13,249.25s-54.47-38.13-10.35-99.14c7.08-7.63,32.14-29.96,69.73-12.53,8.72,3.81,39.22,28.87,33.23,64.82-1.09,11.98-13.62,77.35-101.32,80.62-21.25.54-62.65,2.72-104.59-35.41l113.31,1.63Z"/>
    <path class="cls-2" d="M270.19,15s-98.45,92.74-39.93,192.17c10.58,17.23,73.2,117.04,187.69,89.64,20.55-3.91,72.27-23.01,91.27-81.22,8.56-26.22,5.78-60.22-2.71-85.97-14.87-45.13-52.11-81.35-97.84-94.65-25.4-7.39-52.66-8.45-78.53-2.86-32.51,7.03-62.67,24.54-84.9,49.29,17.88-39.18,55.75-67.85,97.72-77.49,41.97-9.64,87.25-.97,124.42,20.77,57.43,33.59,94.54,93.66,100.01,159.66,3.13,37.8-2.37,76.33-19.28,110.52-19.38,39.19-51.42,69.89-91.8,86.84-33.12,13.91-70.4,17.25-106,15.39-12.8-1.42-124.25-13.28-174.04-118.56-8.18-20.98-27.3-63.58-13.14-124.78,9.93-42.9,35.44-80.68,68.63-109.62,15.23-13.28,29.88-24.32,38.43-29.15Z"/>
  </g>
  <g>
    <path d="M58.34,696.08c-8,0-15.53-1.51-22.6-4.54-7.08-3.02-13.29-7.24-18.63-12.64-5.35-5.4-9.54-11.67-12.56-18.8-3.03-7.13-4.54-14.8-4.54-23.01s1.54-15.85,4.62-22.93c3.08-7.07,7.32-13.29,12.72-18.63,5.4-5.35,11.72-9.48,18.96-12.4,7.24-2.92,15.07-4.38,23.5-4.38,9.4,0,18.01,1.73,25.85,5.19,7.83,3.46,14.39,8.37,19.69,14.75l-15.07,15.07c-3.46-4.75-7.83-8.37-13.13-10.86-5.29-2.48-11.13-3.73-17.5-3.73-7.24,0-13.64,1.59-19.2,4.78-5.56,3.19-9.91,7.64-13.04,13.37-3.13,5.73-4.7,12.32-4.7,19.77s1.56,14.37,4.7,20.09c3.13,5.73,7.37,10.18,12.72,13.37,5.35,3.19,11.37,4.78,18.07,4.78,7.24,0,13.39-1.3,18.47-3.89,5.08-2.59,8.97-6.45,11.67-11.59,2.7-5.13,4.05-11.42,4.05-18.88l14.42,10.05-49.91-.49v-19.45h58.17v3.24c0,13.61-2.43,25.01-7.29,34.19-4.86,9.18-11.56,16.07-20.09,20.66-8.54,4.59-18.31,6.89-29.33,6.89Z"/>
    <path d="M166.26,696.08c-7.89,0-14.99-1.81-21.31-5.43-6.32-3.62-11.32-8.53-14.99-14.75-3.67-6.21-5.51-13.21-5.51-20.99s1.84-14.56,5.51-20.66c3.67-6.1,8.67-10.96,14.99-14.58,6.32-3.62,13.42-5.43,21.31-5.43s15.15,1.78,21.47,5.35c6.32,3.57,11.34,8.43,15.07,14.58s5.59,13.07,5.59,20.74-1.84,14.64-5.51,20.9c-3.67,6.27-8.7,11.21-15.07,14.83-6.38,3.62-13.56,5.43-21.55,5.43ZM166.26,676.15c4,0,7.53-.92,10.61-2.75,3.08-1.84,5.45-4.32,7.13-7.45,1.67-3.13,2.51-6.75,2.51-10.86s-.89-7.72-2.67-10.86c-1.78-3.13-4.16-5.59-7.13-7.37-2.97-1.78-6.46-2.67-10.45-2.67s-7.35.89-10.37,2.67c-3.03,1.78-5.38,4.24-7.05,7.37-1.68,3.13-2.51,6.75-2.51,10.86s.84,7.73,2.51,10.86c1.67,3.13,4.02,5.62,7.05,7.45,3.02,1.84,6.48,2.75,10.37,2.75Z"/>
    <path d="M258.46,696.08c-7.89,0-14.99-1.81-21.31-5.43-6.32-3.62-11.32-8.53-14.99-14.75-3.67-6.21-5.51-13.21-5.51-20.99s1.84-14.56,5.51-20.66c3.67-6.1,8.67-10.96,14.99-14.58,6.32-3.62,13.42-5.43,21.31-5.43s15.15,1.78,21.47,5.35c6.32,3.57,11.34,8.43,15.07,14.58s5.59,13.07,5.59,20.74-1.84,14.64-5.51,20.9c-3.67,6.27-8.7,11.21-15.07,14.83-6.38,3.62-13.56,5.43-21.55,5.43ZM258.46,676.15c4,0,7.53-.92,10.61-2.75,3.08-1.84,5.45-4.32,7.13-7.45,1.67-3.13,2.51-6.75,2.51-10.86s-.89-7.72-2.67-10.86c-1.78-3.13-4.16-5.59-7.13-7.37-2.97-1.78-6.46-2.67-10.45-2.67s-7.35.89-10.37,2.67c-3.03,1.78-5.38,4.24-7.05,7.37-1.68,3.13-2.51,6.75-2.51,10.86s.84,7.73,2.51,10.86c1.67,3.13,4.02,5.62,7.05,7.45,3.02,1.84,6.48,2.75,10.37,2.75Z"/>
    <path d="M346.94,695.92c-7.24,0-13.69-1.78-19.36-5.35-5.67-3.57-10.18-8.43-13.53-14.58-3.35-6.16-5.02-13.07-5.02-20.74s1.67-14.75,5.02-20.9c3.35-6.16,7.86-11.02,13.53-14.58,5.67-3.56,12.13-5.35,19.36-5.35,5.62,0,10.69,1.16,15.23,3.48,4.54,2.32,8.18,5.48,10.94,9.48,2.75,4,4.24,8.54,4.46,13.61v27.87c-.22,5.18-1.68,9.83-4.38,13.94-2.7,4.11-6.32,7.32-10.86,9.64-4.54,2.32-9.67,3.48-15.39,3.48ZM350.66,676.31c3.89,0,7.34-.92,10.37-2.75,3.02-1.84,5.37-4.32,7.05-7.45,1.67-3.13,2.51-6.75,2.51-10.86s-.84-7.88-2.51-11.02c-1.68-3.13-4-5.62-6.97-7.45-2.97-1.84-6.4-2.75-10.29-2.75s-7.48.89-10.45,2.67c-2.97,1.78-5.29,4.27-6.97,7.45-1.68,3.19-2.51,6.83-2.51,10.94s.84,7.92,2.51,11.1c1.67,3.19,4.02,5.67,7.05,7.45,3.02,1.78,6.43,2.67,10.21,2.67ZM390.69,694.3h-21.39v-21.07l3.56-19.12-3.73-18.96v-58.01h21.55v117.16Z"/>
    <path d="M411.43,694.3v-113.92h15.39l6.64,22.2v91.72h-22.04ZM490.18,694.3l-67.57-87.34,4.21-26.57,67.73,87.34-4.38,26.58ZM490.18,694.3l-6.32-21.39v-92.53h22.04v113.92h-15.72Z"/>
    <path d="M537.66,603.39c-3.46,0-6.32-1.16-8.59-3.48-2.27-2.32-3.4-5.21-3.4-8.67s1.13-6.21,3.4-8.59c2.27-2.38,5.13-3.57,8.59-3.57s6.45,1.19,8.67,3.57c2.21,2.38,3.32,5.24,3.32,8.59s-1.11,6.35-3.32,8.67c-2.22,2.32-5.1,3.48-8.67,3.48ZM526.8,694.3v-78.27h21.55v78.27h-21.55Z"/>
    <path d="M592.59,694.3l-34.51-78.27h23.33l24.79,64.49h-11.5l24.79-64.49h22.69l-34.35,78.27h-15.23Z"/>
    <path d="M682.2,695.92c-7.13,0-13.53-1.78-19.2-5.35-5.67-3.57-10.13-8.43-13.37-14.58-3.24-6.16-4.86-13.07-4.86-20.74s1.62-14.75,4.86-20.9,7.7-11.02,13.37-14.58c5.67-3.56,12.12-5.35,19.36-5.35,5.51,0,10.48,1.13,14.91,3.4,4.43,2.27,7.99,5.4,10.7,9.4,2.7,4,4.16,8.59,4.38,13.77v28.36c-.22,5.08-1.65,9.64-4.29,13.69-2.65,4.05-6.21,7.21-10.7,9.48-4.48,2.27-9.54,3.4-15.15,3.4ZM686.25,676.31c5.94,0,10.75-2,14.42-6,3.67-4,5.51-9.02,5.51-15.07,0-4.1-.87-7.78-2.59-11.02-1.73-3.24-4.05-5.75-6.97-7.54-2.92-1.78-6.38-2.67-10.37-2.67s-7.32.92-10.29,2.75c-2.97,1.84-5.29,4.32-6.97,7.45-1.68,3.13-2.51,6.75-2.51,10.86s.84,7.89,2.51,11.02c1.67,3.13,4.02,5.62,7.05,7.45,3.02,1.84,6.43,2.75,10.21,2.75ZM704.89,694.3v-21.07l3.57-19.12-3.57-18.96v-19.12h21.39v78.27h-21.39Z"/>
  </g>
</svg>